<svg width="24" height="24" viewBox="0 0 24 24" fill="none" xmlns="http://www.w3.org/2000/svg">
    <path fill-rule="evenodd" clip-rule="evenodd" d="M12.384 0.690524L14.198 1.59752C15.2498 2.12326 15.7931 3.31096 15.503 4.45052L14.6 7.99952H21C22.1046 7.99952 23 8.89495 23 9.99952V12.1035C23.0003 12.3649 22.9493 12.6238 22.85 12.8655L19.755 20.3805C19.6006 20.7552 19.2353 20.9995 18.83 20.9995H2C1.44772 20.9995 1 20.5518 1 19.9995V9.99952C1 9.44724 1.44772 8.99952 2 8.99952H5.482C5.80688 8.99961 6.11155 8.84186 6.299 8.57652L11.752 0.849524C11.8944 0.647657 12.163 0.580098 12.384 0.690524ZM12.643 3.05752L7.933 9.72952C7.683 10.0835 7.363 10.3735 7 10.5875V18.9995H18.16L21 12.1035V9.99952H14.6C13.9827 9.99944 13.4001 9.71434 13.0213 9.22701C12.6424 8.73968 12.5098 8.10473 12.662 7.50652L13.565 3.95852C13.6232 3.73048 13.5145 3.49271 13.304 3.38752L12.643 3.05752Z" fill="currentColor"/>
</svg>
